# xmcd CD database file
#
# Track frame offsets:
#	182
#	14675
#	30200
#	40932
#	58712
#	72522
#	86677
#	100987
#	116777
#	131245
#	156477
#	176035
#	191025
#
# Disc length: 3214 seconds
#
# Revision: 0
# Processed by: cddbd v1.5.2PL0 Copyright (c) Steve Scherf et al.
# Submitted via: CDex 1.51
#
DISCID=be0c8c0d
DTITLE=Compil - Big Bands - The magnificent ten
DYEAR=1991
DGENRE=Jazz
TTITLE0=Count Basie - Swinging the blues
TTITLE1=Buddy Rich - Norvegian Wood
TTITLE2=Tommy Dorsey - Jada
TTITLE3=Stan Kenton - Malaguena
TTITLE4=Harry James - Flying home
TTITLE5=Count Basie - Jumping at the wood side
TTITLE6=Benny Goodman - King porter stomp
TTITLE7=Duke Ellington - I can't believe that you are in love with me
TTITLE8=Thad Jones - Mel Lewis - Take a ladder
TTITLE9=Clark Terry - The zinger
TTITLE10=Clark Terry - Gye's blues
TTITLE11=Buddy Rich - So what
TTITLE12=Gil Evans - Gone
EXTD=YEAR: 1991
EXTT0=
EXTT1=
EXTT2=
EXTT3=
EXTT4=
EXTT5=
EXTT6=
EXTT7=
EXTT8=
EXTT9=
EXTT10=
EXTT11=
EXTT12=
PLAYORDER=
